<svg xmlns="http://www.w3.org/2000/svg" xmlns:xlink="http://www.w3.org/1999/xlink" viewBox="0 0 1926.51 217.58"><defs><style>.cls-1{fill:url(#radial-gradient);}.cls-2{fill:#fff;}</style><radialGradient id="radial-gradient" cx="963.25" cy="111.14" r="685.27" gradientUnits="userSpaceOnUse"><stop offset="0" stop-color="#262626"/><stop offset="0.31" stop-color="#212121"/><stop offset="0.67" stop-color="#131313"/><stop offset="1"/></radialGradient></defs><g id="Layer_2" data-name="Layer 2"><g id="Layer_1-2" data-name="Layer 1"><rect class="cls-1" y="4.7" width="1926.51" height="212.88"/><path class="cls-2" d="M1907.82,8.5h-50.54V0h50.54Zm-101.08,0H1756.2V0h50.54Zm-101.08,0h-50.54V0h50.54Zm-101.08,0H1554V0h50.54Zm-101.09,0H1453V0h50.54Zm-101.08,0h-50.54V0h50.54Zm-101.08,0h-50.54V0h50.54Zm-101.08,0h-50.54V0h50.54Zm-101.09,0h-50.54V0h50.54Zm-101.08,0H947.54V0h50.54ZM897,8.5H846.46V0H897Zm-101.08,0H745.38V0h50.54Zm-101.09,0H644.29V0h50.54Zm-101.08,0H543.21V0h50.54Zm-101.08,0H442.13V0h50.54Zm-101.08,0H341.05V0h50.54ZM290.5,8.5H240V0H290.5Zm-101.08,0H138.88V0h50.54ZM88.34,8.5H37.8V0H88.34Z"/></g></g></svg>